<?xml version="1.0" encoding="UTF-8"?>
<svg width="32px" height="32px" viewBox="0 0 32 32" version="1.1" xmlns="http://www.w3.org/2000/svg" xmlns:xlink="http://www.w3.org/1999/xlink">
    <!-- Generator: sketchtool 63.1 (101010) - https://sketch.com -->
    <title>90C9AA54-4D34-44F7-8385-CA65FDFBE3BF</title>
    <desc>Created with sketchtool.</desc>
    <defs>
        <circle id="path-1" cx="16" cy="16" r="16"></circle>
        <path d="M8.86862915,4.2 L6.23431458,1.56568542 C5.92189514,1.25326599 5.92189514,0.746734008 6.23431458,0.434314575 C6.54673401,0.121895142 7.05326599,0.121895142 7.36568542,0.434314575 L11.3656854,4.43431458 C11.6781049,4.74673401 11.6781049,5.25326599 11.3656854,5.56568542 L7.36568542,9.56568542 C7.05326599,9.87810486 6.54673401,9.87810486 6.23431458,9.56568542 C5.92189514,9.25326599 5.92189514,8.74673401 6.23431458,8.43431458 L8.86862915,5.8 L1.2,5.8 C0.7581722,5.8 0.4,5.4418278 0.4,5 C0.4,4.5581722 0.7581722,4.2 1.2,4.2 L8.86862915,4.2 Z" id="path-3"></path>
    </defs>
    <g id="Page-1" stroke="none" stroke-width="1" fill="none" fill-rule="evenodd">
        <g id="Homepage-desktop" transform="translate(-465.000000, -2234.000000)">
            <g id="item-list1" transform="translate(206.000000, 2110.000000)">
                <g id="Icons-/-Oval-+-Icon" transform="translate(259.000000, 124.000000)">
                    <mask id="mask-2" fill="white">
                        <use xlink:href="#path-1"></use>
                    </mask>
                    <use id="canvas-oval" fill="#FFFFFF" fill-rule="nonzero" xlink:href="#path-1"></use>
                    <g id="icon" mask="url(#mask-2)">
                        <g transform="translate(10.000000, 11.000000)">
                            <mask id="mask-4" fill="white">
                                <use xlink:href="#path-3"></use>
                            </mask>
                            <use id="fill" stroke="none" fill="#0B24FB" fill-rule="evenodd" xlink:href="#path-3"></use>
                        </g>
                    </g>
                </g>
            </g>
        </g>
    </g>
</svg>